static pose
version=1
nRows=1
nColumns=235
inDegrees=no
endheader
time	/jointset/ground_pelvis/pelvis_tilt/value	/jointset/ground_pelvis/pelvis_tilt/speed	/jointset/ground_pelvis/pelvis_list/value	/jointset/ground_pelvis/pelvis_list/speed	/jointset/ground_pelvis/pelvis_rotation/value	/jointset/ground_pelvis/pelvis_rotation/speed	/jointset/ground_pelvis/pelvis_tx/value	/jointset/ground_pelvis/pelvis_tx/speed	/jointset/ground_pelvis/pelvis_ty/value	/jointset/ground_pelvis/pelvis_ty/speed	/jointset/ground_pelvis/pelvis_tz/value	/jointset/ground_pelvis/pelvis_tz/speed	/jointset/hip_l/hip_flexion_l/value	/jointset/hip_l/hip_flexion_l/speed	/jointset/hip_l/hip_adduction_l/value	/jointset/hip_l/hip_adduction_l/speed	/jointset/hip_l/hip_rotation_l/value	/jointset/hip_l/hip_rotation_l/speed	/jointset/hip_r/hip_flexion_r/value	/jointset/hip_r/hip_flexion_r/speed	/jointset/hip_r/hip_adduction_r/value	/jointset/hip_r/hip_adduction_r/speed	/jointset/hip_r/hip_rotation_r/value	/jointset/hip_r/hip_rotation_r/speed	/jointset/patellofemoral_l/knee_angle_l_beta/value	/jointset/patellofemoral_l/knee_angle_l_beta/speed	/jointset/patellofemoral_r/knee_angle_r_beta/value	/jointset/patellofemoral_r/knee_angle_r_beta/speed	/jointset/knee_l/knee_angle_l/value	/jointset/knee_l/knee_angle_l/speed	/jointset/knee_r/knee_angle_r/value	/jointset/knee_r/knee_angle_r/speed	/jointset/ankle_l/ankle_angle_l/value	/jointset/ankle_l/ankle_angle_l/speed	/jointset/ankle_r/ankle_angle_r/value	/jointset/ankle_r/ankle_angle_r/speed	/jointset/subtalar_l/subtalar_angle_l/value	/jointset/subtalar_l/subtalar_angle_l/speed	/jointset/subtalar_r/subtalar_angle_r/value	/jointset/subtalar_r/subtalar_angle_r/speed	/jointset/mtp_l/mtp_angle_l/value	/jointset/mtp_l/mtp_angle_l/speed	/jointset/mtp_r/mtp_angle_r/value	/jointset/mtp_r/mtp_angle_r/speed	/jointset/lumbar/lumbar_ext/value	/jointset/lumbar/lumbar_ext/speed	/jointset/lumbar/lumbar_bend/value	/jointset/lumbar/lumbar_bend/speed	/jointset/lumbar/lumbar_rota/value	/jointset/lumbar/lumbar_rota/speed	/jointset/shoulder_r/shoulder_flexion_r/value	/jointset/shoulder_r/shoulder_flexion_r/speed	/jointset/shoulder_r/shoulder_adduction_r/value	/jointset/shoulder_r/shoulder_adduction_r/speed	/jointset/shoulder_r/shoulder_rotation_r/value	/jointset/shoulder_r/shoulder_rotation_r/speed	/jointset/elbow_r/elbow_flexion_r/value	/jointset/elbow_r/elbow_flexion_r/speed	/jointset/shoulder_l/shoulder_flexion_l/value	/jointset/shoulder_l/shoulder_flexion_l/speed	/jointset/shoulder_l/shoulder_adduction_l/value	/jointset/shoulder_l/shoulder_adduction_l/speed	/jointset/shoulder_l/shoulder_rotation_l/value	/jointset/shoulder_l/shoulder_rotation_l/speed	/jointset/elbow_l/elbow_flexion_l/value	/jointset/elbow_l/elbow_flexion_l/speed	/forceset/addbrev_r/activation	/forceset/addbrev_r/normalized_tendon_force	/forceset/addlong_r/activation	/forceset/addlong_r/normalized_tendon_force	/forceset/addmagMid_r/activation	/forceset/addmagMid_r/normalized_tendon_force	/forceset/bflh_r/activation	/forceset/bflh_r/normalized_tendon_force	/forceset/bfsh_r/activation	/forceset/bfsh_r/normalized_tendon_force	/forceset/edl_r/activation	/forceset/edl_r/normalized_tendon_force	/forceset/ehl_r/activation	/forceset/ehl_r/normalized_tendon_force	/forceset/ercspn_r/activation	/forceset/ercspn_r/normalized_tendon_force	/forceset/extobl_r/activation	/forceset/extobl_r/normalized_tendon_force	/forceset/fdb_r/activation	/forceset/fdb_r/normalized_tendon_force	/forceset/fdl_r/activation	/forceset/fdl_r/normalized_tendon_force	/forceset/fhl_r/activation	/forceset/fhl_r/normalized_tendon_force	/forceset/gaslat_r/activation	/forceset/gaslat_r/normalized_tendon_force	/forceset/gasmed_r/activation	/forceset/gasmed_r/normalized_tendon_force	/forceset/glmax2_r/activation	/forceset/glmax2_r/normalized_tendon_force	/forceset/glmed2_r/activation	/forceset/glmed2_r/normalized_tendon_force	/forceset/glmin2_r/activation	/forceset/glmin2_r/normalized_tendon_force	/forceset/grac_r/activation	/forceset/grac_r/normalized_tendon_force	/forceset/iliacus_r/activation	/forceset/iliacus_r/normalized_tendon_force	/forceset/intobl_r/activation	/forceset/intobl_r/normalized_tendon_force	/forceset/obtext_r/activation	/forceset/obtext_r/normalized_tendon_force	/forceset/pect_r/activation	/forceset/pect_r/normalized_tendon_force	/forceset/perbrev_r/activation	/forceset/perbrev_r/normalized_tendon_force	/forceset/perlong_r/activation	/forceset/perlong_r/normalized_tendon_force	/forceset/pertert_r/activation	/forceset/pertert_r/normalized_tendon_force	/forceset/piri_r/activation	/forceset/piri_r/normalized_tendon_force	/forceset/popli_r/activation	/forceset/popli_r/normalized_tendon_force	/forceset/psoas_r/activation	/forceset/psoas_r/normalized_tendon_force	/forceset/quadfem_r/activation	/forceset/quadfem_r/normalized_tendon_force	/forceset/recabd_r/activation	/forceset/recabd_r/normalized_tendon_force	/forceset/recfem_r/activation	/forceset/recfem_r/normalized_tendon_force	/forceset/sart_r/activation	/forceset/sart_r/normalized_tendon_force	/forceset/semimem_r/activation	/forceset/semimem_r/normalized_tendon_force	/forceset/semiten_r/activation	/forceset/semiten_r/normalized_tendon_force	/forceset/soleus_r/activation	/forceset/soleus_r/normalized_tendon_force	/forceset/tfl_r/activation	/forceset/tfl_r/normalized_tendon_force	/forceset/tibant_r/activation	/forceset/tibant_r/normalized_tendon_force	/forceset/tibpost_r/activation	/forceset/tibpost_r/normalized_tendon_force	/forceset/tricox_r/activation	/forceset/tricox_r/normalized_tendon_force	/forceset/vasint_r/activation	/forceset/vasint_r/normalized_tendon_force	/forceset/vaslat_r/activation	/forceset/vaslat_r/normalized_tendon_force	/forceset/vasmed_r/activation	/forceset/vasmed_r/normalized_tendon_force	/forceset/addbrev_l/activation	/forceset/addbrev_l/normalized_tendon_force	/forceset/addlong_l/activation	/forceset/addlong_l/normalized_tendon_force	/forceset/addmagMid_l/activation	/forceset/addmagMid_l/normalized_tendon_force	/forceset/bflh_l/activation	/forceset/bflh_l/normalized_tendon_force	/forceset/bfsh_l/activation	/forceset/bfsh_l/normalized_tendon_force	/forceset/edl_l/activation	/forceset/edl_l/normalized_tendon_force	/forceset/ehl_l/activation	/forceset/ehl_l/normalized_tendon_force	/forceset/ercspn_l/activation	/forceset/ercspn_l/normalized_tendon_force	/forceset/extobl_l/activation	/forceset/extobl_l/normalized_tendon_force	/forceset/fdb_l/activation	/forceset/fdb_l/normalized_tendon_force	/forceset/fdl_l/activation	/forceset/fdl_l/normalized_tendon_force	/forceset/fhl_l/activation	/forceset/fhl_l/normalized_tendon_force	/forceset/gaslat_l/activation	/forceset/gaslat_l/normalized_tendon_force	/forceset/gasmed_l/activation	/forceset/gasmed_l/normalized_tendon_force	/forceset/glmax2_l/activation	/forceset/glmax2_l/normalized_tendon_force	/forceset/glmed2_l/activation	/forceset/glmed2_l/normalized_tendon_force	/forceset/glmin2_l/activation	/forceset/glmin2_l/normalized_tendon_force	/forceset/grac_l/activation	/forceset/grac_l/normalized_tendon_force	/forceset/iliacus_l/activation	/forceset/iliacus_l/normalized_tendon_force	/forceset/intobl_l/activation	/forceset/intobl_l/normalized_tendon_force	/forceset/obtext_l/activation	/forceset/obtext_l/normalized_tendon_force	/forceset/pect_l/activation	/forceset/pect_l/normalized_tendon_force	/forceset/perbrev_l/activation	/forceset/perbrev_l/normalized_tendon_force	/forceset/perlong_l/activation	/forceset/perlong_l/normalized_tendon_force	/forceset/pertert_l/activation	/forceset/pertert_l/normalized_tendon_force	/forceset/piri_l/activation	/forceset/piri_l/normalized_tendon_force	/forceset/popli_l/activation	/forceset/popli_l/normalized_tendon_force	/forceset/psoas_l/activation	/forceset/psoas_l/normalized_tendon_force	/forceset/quadfem_l/activation	/forceset/quadfem_l/normalized_tendon_force	/forceset/recabd_l/activation	/forceset/recabd_l/normalized_tendon_force	/forceset/recfem_l/activation	/forceset/recfem_l/normalized_tendon_force	/forceset/sart_l/activation	/forceset/sart_l/normalized_tendon_force	/forceset/semimem_l/activation	/forceset/semimem_l/normalized_tendon_force	/forceset/semiten_l/activation	/forceset/semiten_l/normalized_tendon_force	/forceset/soleus_l/activation	/forceset/soleus_l/normalized_tendon_force	/forceset/tfl_l/activation	/forceset/tfl_l/normalized_tendon_force	/forceset/tibant_l/activation	/forceset/tibant_l/normalized_tendon_force	/forceset/tibpost_l/activation	/forceset/tibpost_l/normalized_tendon_force	/forceset/tricox_l/activation	/forceset/tricox_l/normalized_tendon_force	/forceset/vasint_l/activation	/forceset/vasint_l/normalized_tendon_force	/forceset/vaslat_l/activation	/forceset/vaslat_l/normalized_tendon_force	/forceset/vasmed_l/activation	/forceset/vasmed_l/normalized_tendon_force
      0.00000000	      0.02703047	      0.00000000	      0.00196814	      0.00000000	      0.06561448	      0.00000000	      0.75800035	      0.00000000	      0.85205404	      0.00000000	     -0.20253382	      0.00000000	     -0.06980018	      0.00000000	     -0.06035154	      0.00000000	     -0.08274215	      0.00000000	     -0.12755030	      0.00000000	     -0.00278962	      0.00000000	     -0.13916158	      0.00000000	      0.00439467	      0.00000000	     -0.06615029	      0.00000000	     -0.00439467	      0.00000000	      0.06615029	      0.00000000	      0.15540121	      0.00000000	      0.02864815	      0.00000000	      0.43976760	      0.00000000	      0.25578705	      0.00000000	     -0.04172043	      0.00000000	     -0.08616290	      0.00000000	     -0.22308421	      0.00000000	     -0.01598335	      0.00000000	     -0.01898713	      0.00000000	      0.00858035	      0.00000000	      0.05662520	      0.00000000	     -0.82808070	      0.00000000	      0.62790870	      0.00000000	     -0.02522490	      0.00000000	      0.10620150	      0.00000000	     -0.80595687	      0.00000000	      0.78752271	      0.00000000	      0.01000000	      0.50000000	      0.01000000	      0.50000000	      0.01000000	      0.50000000	      0.01000000	      0.50000000	      0.01000000	      0.50000000	      0.01000000	      0.50000000	      0.01000000	      0.50000000	      0.01000000	      0.50000000	      0.01000000	      0.50000000	      0.01000000	      0.50000000	      0.01000000	      0.50000000	      0.01000000	      0.50000000	      0.01000000	      0.50000000	      0.01000000	      0.50000000	      0.01000000	      0.50000000	      0.01000000	      0.50000000	      0.01000000	      0.50000000	      0.01000000	      0.50000000	      0.01000000	      0.50000000	      0.01000000	      0.50000000	      0.01000000	      0.50000000	      0.01000000	      0.50000000	      0.01000000	      0.50000000	      0.01000000	      0.50000000	      0.01000000	      0.50000000	      0.01000000	      0.50000000	      0.01000000	      0.50000000	      0.01000000	      0.50000000	      0.01000000	      0.50000000	      0.01000000	      0.50000000	      0.01000000	      0.50000000	      0.01000000	      0.50000000	      0.01000000	      0.50000000	      0.01000000	      0.50000000	      0.01000000	      0.50000000	      0.01000000	      0.50000000	      0.01000000	      0.50000000	      0.01000000	      0.50000000	      0.01000000	      0.50000000	      0.01000000	      0.50000000	      0.01000000	      0.50000000	      0.01000000	      0.50000000	      0.01000000	      0.50000000	      0.01000000	      0.50000000	      0.01000000	      0.50000000	      0.01000000	      0.50000000	      0.01000000	      0.50000000	      0.01000000	      0.50000000	      0.01000000	      0.50000000	      0.01000000	      0.50000000	      0.01000000	      0.50000000	      0.01000000	      0.50000000	      0.01000000	      0.50000000	      0.01000000	      0.50000000	      0.01000000	      0.50000000	      0.01000000	      0.50000000	      0.01000000	      0.50000000	      0.01000000	      0.50000000	      0.01000000	      0.50000000	      0.01000000	      0.50000000	      0.01000000	      0.50000000	      0.01000000	      0.50000000	      0.01000000	      0.50000000	      0.01000000	      0.50000000	      0.01000000	      0.50000000	      0.01000000	      0.50000000	      0.01000000	      0.50000000	      0.01000000	      0.50000000	      0.01000000	      0.50000000	      0.01000000	      0.50000000	      0.01000000	      0.50000000	      0.01000000	      0.50000000	      0.01000000	      0.50000000	      0.01000000	      0.50000000	      0.01000000	      0.50000000	      0.01000000	      0.50000000	      0.01000000	      0.50000000	      0.01000000	      0.50000000	      0.01000000	      0.50000000	      0.01000000	      0.50000000	      0.01000000	      0.50000000	      0.01000000	      0.50000000	      0.01000000	      0.50000000	      0.01000000	      0.50000000
